<mxfile host="65bd71144e" modified="2020-12-08T03:44:53.686Z" agent="5.0 (Windows NT 10.0; Win64; x64) AppleWebKit/537.36 (KHTML, like Gecko) Code/1.51.1 Chrome/83.0.4103.122 Electron/9.3.3 Safari/537.36" etag="FhIna2SzSTf5xgrE9369" version="13.10.0" type="embed">
    <diagram id="mWigEloJbhx4FwUi0EFt" name="MON">
        <mxGraphModel dx="644" dy="479" grid="1" gridSize="10" guides="1" tooltips="1" connect="1" arrows="1" fold="1" page="1" pageScale="1" pageWidth="827" pageHeight="1169" math="0" shadow="0">
            <root>
                <mxCell id="0"/>
                <mxCell id="1" parent="0"/>
                <mxCell id="5MuDeZs67-jdQpyHNOxu-21" value="" style="rounded=0;whiteSpace=wrap;html=1;labelBackgroundColor=none;gradientColor=none;fontColor=#000000;fillColor=#1976D2;" parent="1" vertex="1">
                    <mxGeometry x="1040" y="139" width="240" height="440" as="geometry"/>
                </mxCell>
                <mxCell id="5MuDeZs67-jdQpyHNOxu-22" style="edgeStyle=orthogonalEdgeStyle;rounded=0;orthogonalLoop=1;jettySize=auto;html=1;fontColor=#FFFFFF;" parent="1" source="5MuDeZs67-jdQpyHNOxu-1" target="5MuDeZs67-jdQpyHNOxu-4" edge="1">
                    <mxGeometry relative="1" as="geometry"/>
                </mxCell>
                <mxCell id="5MuDeZs67-jdQpyHNOxu-23" style="edgeStyle=orthogonalEdgeStyle;rounded=0;orthogonalLoop=1;jettySize=auto;html=1;fontColor=#FFFFFF;" parent="1" source="5MuDeZs67-jdQpyHNOxu-1" target="5MuDeZs67-jdQpyHNOxu-3" edge="1">
                    <mxGeometry relative="1" as="geometry">
                        <Array as="points">
                            <mxPoint x="260" y="210"/>
                            <mxPoint x="260" y="340"/>
                        </Array>
                    </mxGeometry>
                </mxCell>
                <mxCell id="5MuDeZs67-jdQpyHNOxu-1" value="&lt;b&gt;Problema de Negocio 1&lt;/b&gt;&lt;br&gt;Deficiencia en el manejo de los recursos documentales" style="rounded=0;whiteSpace=wrap;html=1;fontColor=#FFFFFF;fillColor=#1976D2;" parent="1" vertex="1">
                    <mxGeometry x="80" y="160" width="120" height="100" as="geometry"/>
                </mxCell>
                <mxCell id="5MuDeZs67-jdQpyHNOxu-24" style="edgeStyle=orthogonalEdgeStyle;rounded=0;orthogonalLoop=1;jettySize=auto;html=1;fontColor=#FFFFFF;" parent="1" source="5MuDeZs67-jdQpyHNOxu-2" target="5MuDeZs67-jdQpyHNOxu-5" edge="1">
                    <mxGeometry relative="1" as="geometry">
                        <Array as="points">
                            <mxPoint x="140" y="519"/>
                        </Array>
                    </mxGeometry>
                </mxCell>
                <mxCell id="5MuDeZs67-jdQpyHNOxu-2" value="&lt;b&gt;Problema de Negocio 2&lt;/b&gt;&lt;br&gt;Deficiencia en el seguimiento de los servicios bibliotecarios brindados" style="rounded=0;whiteSpace=wrap;html=1;fontColor=#FFFFFF;fillColor=#1976D2;" parent="1" vertex="1">
                    <mxGeometry x="80" y="340" width="120" height="100" as="geometry"/>
                </mxCell>
                <mxCell id="5MuDeZs67-jdQpyHNOxu-25" style="edgeStyle=orthogonalEdgeStyle;rounded=0;orthogonalLoop=1;jettySize=auto;html=1;fontColor=#FFFFFF;" parent="1" source="5MuDeZs67-jdQpyHNOxu-3" target="5MuDeZs67-jdQpyHNOxu-8" edge="1">
                    <mxGeometry relative="1" as="geometry"/>
                </mxCell>
                <mxCell id="5MuDeZs67-jdQpyHNOxu-32" style="edgeStyle=orthogonalEdgeStyle;rounded=0;orthogonalLoop=1;jettySize=auto;html=1;startArrow=none;startFill=0;endArrow=none;endFill=0;fontColor=#FFFFFF;" parent="1" source="5MuDeZs67-jdQpyHNOxu-3" target="5MuDeZs67-jdQpyHNOxu-18" edge="1">
                    <mxGeometry relative="1" as="geometry">
                        <Array as="points">
                            <mxPoint x="380" y="250"/>
                            <mxPoint x="610" y="250"/>
                        </Array>
                    </mxGeometry>
                </mxCell>
                <mxCell id="5MuDeZs67-jdQpyHNOxu-34" style="edgeStyle=orthogonalEdgeStyle;rounded=0;orthogonalLoop=1;jettySize=auto;html=1;startArrow=none;startFill=0;endArrow=none;endFill=0;fontColor=#FFFFFF;" parent="1" source="5MuDeZs67-jdQpyHNOxu-3" target="5MuDeZs67-jdQpyHNOxu-20" edge="1">
                    <mxGeometry relative="1" as="geometry">
                        <Array as="points">
                            <mxPoint x="400" y="270"/>
                            <mxPoint x="800" y="270"/>
                        </Array>
                    </mxGeometry>
                </mxCell>
                <mxCell id="5MuDeZs67-jdQpyHNOxu-3" value="&lt;b&gt;Objetivo de Negocio 2&lt;/b&gt;&lt;br&gt;Reducir 50% de retrasos en las devoluciones de los préstamos de recursos documentales" style="rounded=0;whiteSpace=wrap;html=1;fillColor=#90CAF9;" parent="1" vertex="1">
                    <mxGeometry x="320" y="280" width="120" height="120" as="geometry"/>
                </mxCell>
                <mxCell id="5MuDeZs67-jdQpyHNOxu-31" style="edgeStyle=orthogonalEdgeStyle;rounded=0;orthogonalLoop=1;jettySize=auto;html=1;startArrow=none;startFill=0;endArrow=none;endFill=0;fontColor=#FFFFFF;" parent="1" source="5MuDeZs67-jdQpyHNOxu-4" target="5MuDeZs67-jdQpyHNOxu-18" edge="1">
                    <mxGeometry relative="1" as="geometry">
                        <Array as="points">
                            <mxPoint x="380" y="70"/>
                        </Array>
                    </mxGeometry>
                </mxCell>
                <mxCell id="5MuDeZs67-jdQpyHNOxu-40" style="edgeStyle=orthogonalEdgeStyle;rounded=0;orthogonalLoop=1;jettySize=auto;html=1;startArrow=none;startFill=0;endArrow=classic;endFill=1;fontColor=#FFFFFF;jumpStyle=arc;" parent="1" source="5MuDeZs67-jdQpyHNOxu-4" target="5MuDeZs67-jdQpyHNOxu-11" edge="1">
                    <mxGeometry relative="1" as="geometry">
                        <Array as="points">
                            <mxPoint x="960" y="174"/>
                            <mxPoint x="960" y="279"/>
                        </Array>
                    </mxGeometry>
                </mxCell>
                <mxCell id="5MuDeZs67-jdQpyHNOxu-42" style="edgeStyle=orthogonalEdgeStyle;rounded=0;sketch=0;jumpStyle=arc;orthogonalLoop=1;jettySize=auto;html=1;startArrow=none;startFill=0;endArrow=classic;endFill=1;fontColor=#FFFFFF;" parent="1" source="5MuDeZs67-jdQpyHNOxu-4" target="5MuDeZs67-jdQpyHNOxu-14" edge="1">
                    <mxGeometry relative="1" as="geometry">
                        <Array as="points">
                            <mxPoint x="960" y="174"/>
                            <mxPoint x="960" y="340"/>
                        </Array>
                    </mxGeometry>
                </mxCell>
                <mxCell id="5MuDeZs67-jdQpyHNOxu-4" value="&lt;b&gt;Objetivo de Negocio 1&lt;/b&gt;&lt;br&gt;Reducir un 30% del tiempo invertido para registrar un recurso documental" style="rounded=0;whiteSpace=wrap;html=1;fillColor=#90CAF9;" parent="1" vertex="1">
                    <mxGeometry x="320" y="124" width="120" height="100" as="geometry"/>
                </mxCell>
                <mxCell id="5MuDeZs67-jdQpyHNOxu-26" style="edgeStyle=orthogonalEdgeStyle;rounded=0;orthogonalLoop=1;jettySize=auto;html=1;fontColor=#FFFFFF;" parent="1" source="5MuDeZs67-jdQpyHNOxu-5" target="5MuDeZs67-jdQpyHNOxu-7" edge="1">
                    <mxGeometry relative="1" as="geometry"/>
                </mxCell>
                <mxCell id="5MuDeZs67-jdQpyHNOxu-29" style="edgeStyle=orthogonalEdgeStyle;rounded=0;orthogonalLoop=1;jettySize=auto;html=1;fontColor=#FFFFFF;startArrow=none;startFill=0;endArrow=none;endFill=0;" parent="1" source="5MuDeZs67-jdQpyHNOxu-5" target="5MuDeZs67-jdQpyHNOxu-19" edge="1">
                    <mxGeometry relative="1" as="geometry"/>
                </mxCell>
                <mxCell id="5MuDeZs67-jdQpyHNOxu-5" value="&lt;b&gt;Objetivo de Negocio 3&lt;/b&gt;&lt;br&gt;Generar reportes de los servicios brindados para reducir un 40% la inconsciencia de la importancia de ellos&amp;nbsp;" style="rounded=0;whiteSpace=wrap;html=1;fillColor=#90CAF9;" parent="1" vertex="1">
                    <mxGeometry x="320" y="454" width="120" height="130" as="geometry"/>
                </mxCell>
                <mxCell id="5MuDeZs67-jdQpyHNOxu-27" style="edgeStyle=orthogonalEdgeStyle;rounded=0;orthogonalLoop=1;jettySize=auto;html=1;fontColor=#FFFFFF;" parent="1" source="5MuDeZs67-jdQpyHNOxu-7" target="5MuDeZs67-jdQpyHNOxu-10" edge="1">
                    <mxGeometry relative="1" as="geometry"/>
                </mxCell>
                <mxCell id="5MuDeZs67-jdQpyHNOxu-7" value="&lt;b&gt;Problema de Negocio 2&lt;/b&gt;&lt;br&gt;Se brindan diferentes tipos de servicios bibliotecarios" style="rounded=0;whiteSpace=wrap;html=1;fontColor=#FFFFFF;fillColor=#1976D2;" parent="1" vertex="1">
                    <mxGeometry x="560" y="469" width="120" height="100" as="geometry"/>
                </mxCell>
                <mxCell id="5MuDeZs67-jdQpyHNOxu-28" style="edgeStyle=orthogonalEdgeStyle;rounded=0;orthogonalLoop=1;jettySize=auto;html=1;fontColor=#FFFFFF;" parent="1" source="5MuDeZs67-jdQpyHNOxu-8" target="5MuDeZs67-jdQpyHNOxu-9" edge="1">
                    <mxGeometry relative="1" as="geometry"/>
                </mxCell>
                <mxCell id="5MuDeZs67-jdQpyHNOxu-8" value="&lt;b&gt;Problema de Negocio 2&lt;/b&gt;&lt;br&gt;Los Académicos puede olvidar la fecha de vencimiento del préstamo" style="rounded=0;whiteSpace=wrap;html=1;fontColor=#FFFFFF;fillColor=#1976D2;" parent="1" vertex="1">
                    <mxGeometry x="560" y="290" width="120" height="100" as="geometry"/>
                </mxCell>
                <mxCell id="5MuDeZs67-jdQpyHNOxu-33" style="edgeStyle=orthogonalEdgeStyle;rounded=0;orthogonalLoop=1;jettySize=auto;html=1;startArrow=none;startFill=0;endArrow=none;endFill=0;fontColor=#FFFFFF;" parent="1" source="5MuDeZs67-jdQpyHNOxu-9" target="5MuDeZs67-jdQpyHNOxu-20" edge="1">
                    <mxGeometry relative="1" as="geometry"/>
                </mxCell>
                <mxCell id="5MuDeZs67-jdQpyHNOxu-39" style="edgeStyle=orthogonalEdgeStyle;rounded=0;orthogonalLoop=1;jettySize=auto;html=1;startArrow=none;startFill=0;endArrow=classic;endFill=1;fontColor=#FFFFFF;" parent="1" source="5MuDeZs67-jdQpyHNOxu-9" target="5MuDeZs67-jdQpyHNOxu-16" edge="1">
                    <mxGeometry relative="1" as="geometry">
                        <Array as="points">
                            <mxPoint x="1000" y="360"/>
                            <mxPoint x="1000" y="400"/>
                        </Array>
                    </mxGeometry>
                </mxCell>
                <mxCell id="5MuDeZs67-jdQpyHNOxu-9" value="&lt;b&gt;Objetivo de Negocio 4&lt;/b&gt;&lt;br&gt;Controlar por medio de cuentas al 100% de los Académicos" style="rounded=0;whiteSpace=wrap;html=1;fillColor=#90CAF9;" parent="1" vertex="1">
                    <mxGeometry x="800" y="290" width="120" height="100" as="geometry"/>
                </mxCell>
                <mxCell id="5MuDeZs67-jdQpyHNOxu-30" style="edgeStyle=orthogonalEdgeStyle;rounded=0;orthogonalLoop=1;jettySize=auto;html=1;startArrow=none;startFill=0;endArrow=none;endFill=0;fontColor=#FFFFFF;" parent="1" source="5MuDeZs67-jdQpyHNOxu-10" target="5MuDeZs67-jdQpyHNOxu-19" edge="1">
                    <mxGeometry relative="1" as="geometry">
                        <Array as="points">
                            <mxPoint x="860" y="720"/>
                        </Array>
                    </mxGeometry>
                </mxCell>
                <mxCell id="5MuDeZs67-jdQpyHNOxu-35" style="edgeStyle=orthogonalEdgeStyle;rounded=0;orthogonalLoop=1;jettySize=auto;html=1;startArrow=none;startFill=0;endArrow=classic;endFill=1;fontColor=#FFFFFF;" parent="1" source="5MuDeZs67-jdQpyHNOxu-10" target="5MuDeZs67-jdQpyHNOxu-17" edge="1">
                    <mxGeometry relative="1" as="geometry"/>
                </mxCell>
                <mxCell id="5MuDeZs67-jdQpyHNOxu-36" style="edgeStyle=orthogonalEdgeStyle;rounded=0;orthogonalLoop=1;jettySize=auto;html=1;startArrow=none;startFill=0;endArrow=classic;endFill=1;fontColor=#FFFFFF;" parent="1" source="5MuDeZs67-jdQpyHNOxu-10" target="5MuDeZs67-jdQpyHNOxu-13" edge="1">
                    <mxGeometry relative="1" as="geometry">
                        <Array as="points">
                            <mxPoint x="980" y="519"/>
                            <mxPoint x="980" y="460"/>
                        </Array>
                    </mxGeometry>
                </mxCell>
                <mxCell id="5MuDeZs67-jdQpyHNOxu-10" value="&lt;b&gt;Objetivo de Negocio 5&lt;/b&gt;&lt;br&gt;Controlar por el registro de visitas el 80% de los servicios brindados en la biblioteca&amp;nbsp;" style="rounded=0;whiteSpace=wrap;html=1;fillColor=#90CAF9;" parent="1" vertex="1">
                    <mxGeometry x="800" y="469" width="120" height="100" as="geometry"/>
                </mxCell>
                <mxCell id="5MuDeZs67-jdQpyHNOxu-11" value="Administrar recursos documentales" style="rounded=0;whiteSpace=wrap;html=1;fillColor=#90CAF9;labelBackgroundColor=none;" parent="1" vertex="1">
                    <mxGeometry x="1080.5" y="259" width="159" height="40" as="geometry"/>
                </mxCell>
                <mxCell id="5MuDeZs67-jdQpyHNOxu-12" value="&lt;b&gt;Concepto del Producto&lt;/b&gt;&lt;br&gt;Construir un Sistema Bibliotecario" style="text;html=1;strokeColor=none;fillColor=none;align=center;verticalAlign=middle;whiteSpace=wrap;rounded=0;labelBackgroundColor=none;fontColor=#FFFFFF;" parent="1" vertex="1">
                    <mxGeometry x="1060" y="164" width="200" height="50" as="geometry"/>
                </mxCell>
                <mxCell id="5MuDeZs67-jdQpyHNOxu-13" value="Administrar reportes de servicios bibliotecarios" style="rounded=0;whiteSpace=wrap;html=1;fillColor=#90CAF9;labelBackgroundColor=none;" parent="1" vertex="1">
                    <mxGeometry x="1080.5" y="440" width="159" height="40" as="geometry"/>
                </mxCell>
                <mxCell id="5MuDeZs67-jdQpyHNOxu-14" value="Administrar préstamos de recursos documentales" style="rounded=0;whiteSpace=wrap;html=1;fillColor=#90CAF9;labelBackgroundColor=none;" parent="1" vertex="1">
                    <mxGeometry x="1080.5" y="320" width="159" height="40" as="geometry"/>
                </mxCell>
                <mxCell id="5MuDeZs67-jdQpyHNOxu-16" value="Gestionar cuentas de estudiantes" style="rounded=0;whiteSpace=wrap;html=1;fillColor=#90CAF9;labelBackgroundColor=none;" parent="1" vertex="1">
                    <mxGeometry x="1080.5" y="380" width="159" height="40" as="geometry"/>
                </mxCell>
                <mxCell id="5MuDeZs67-jdQpyHNOxu-17" value="Gestionar visitas de estudiantes y personas externas" style="rounded=0;whiteSpace=wrap;html=1;fillColor=#90CAF9;labelBackgroundColor=none;" parent="1" vertex="1">
                    <mxGeometry x="1080.5" y="499" width="159" height="40" as="geometry"/>
                </mxCell>
                <mxCell id="5MuDeZs67-jdQpyHNOxu-18" value="&lt;b&gt;ME 2&lt;/b&gt;: Que el 100% de los recursos documentales sean registrados en el sistema en los primeros dos meses del lanzamiento.&amp;nbsp;" style="text;html=1;strokeColor=none;fillColor=none;align=center;verticalAlign=middle;whiteSpace=wrap;rounded=0;labelBackgroundColor=none;fontColor=#000000;" parent="1" vertex="1">
                    <mxGeometry x="510" y="30" width="220" height="80" as="geometry"/>
                </mxCell>
                <mxCell id="5MuDeZs67-jdQpyHNOxu-19" value="&lt;b&gt;ME 1&lt;/b&gt;: Que el 100% de los servicios brindados en la biblioteca se registren en el sistema en su primes mes del lanzamiento." style="text;html=1;strokeColor=none;fillColor=none;align=center;verticalAlign=middle;whiteSpace=wrap;rounded=0;labelBackgroundColor=none;fontColor=#000000;" parent="1" vertex="1">
                    <mxGeometry x="270" y="680" width="220" height="80" as="geometry"/>
                </mxCell>
                <mxCell id="5MuDeZs67-jdQpyHNOxu-20" value="&lt;b&gt;ME 3&lt;/b&gt;: Reducir un 40% del tiempo de contacto con los estudiantes en los primeros tres meses del lanzamiento del sistema." style="text;html=1;strokeColor=none;fillColor=none;align=center;verticalAlign=middle;whiteSpace=wrap;rounded=0;labelBackgroundColor=none;fontColor=#000000;" parent="1" vertex="1">
                    <mxGeometry x="750" y="30" width="220" height="80" as="geometry"/>
                </mxCell>
                <mxCell id="5MuDeZs67-jdQpyHNOxu-43" value="&lt;b&gt;ME&lt;/b&gt;: Métricas de éxito" style="text;html=1;strokeColor=none;fillColor=none;align=center;verticalAlign=middle;whiteSpace=wrap;rounded=0;labelBackgroundColor=none;" parent="1" vertex="1">
                    <mxGeometry x="1100" y="610" width="120" height="20" as="geometry"/>
                </mxCell>
            </root>
        </mxGraphModel>
    </diagram>
</mxfile>